<svg width="185" height="43" viewBox="0 0 185 43" fill="none" xmlns="http://www.w3.org/2000/svg">
<path d="M0.24 41.3926L5.32 14.9926H14.12L8.96 41.3926H0.24ZM31.9359 42.1926C28.7093 42.1926 27.0959 40.9392 27.0959 38.4326C27.1226 37.7392 27.2426 36.8059 27.4559 35.6326L28.1759 31.9526C28.8959 28.4859 29.2559 26.3659 29.2559 25.5926C29.2559 24.0459 28.8026 23.2726 27.8959 23.2726C26.3759 23.2726 25.2159 25.2592 24.4159 29.2326L22.0559 41.3926L14.0159 42.1926L18.1759 20.9526L24.7359 20.1926L24.0959 24.1126C25.3493 21.4992 27.8959 20.1926 31.7359 20.1926C33.6026 20.1926 34.9226 20.5926 35.6959 21.3926C36.4959 22.1659 36.8959 23.4326 36.8959 25.1926C36.8959 26.8459 36.4693 29.6059 35.6159 33.4726C35.2159 35.2059 35.0159 36.4059 35.0159 37.0726C35.0159 37.7126 35.1893 38.2192 35.5359 38.5926C35.9093 38.9659 36.3626 39.1792 36.8959 39.2326C36.6293 40.1392 36.0293 40.8592 35.0959 41.3926C34.1893 41.9259 33.1359 42.1926 31.9359 42.1926ZM52.0541 27.3526C52.4274 26.3659 52.6141 25.4459 52.6141 24.5926C52.6141 23.0192 51.9741 22.2326 50.6941 22.2326C50.0274 22.2326 49.4141 22.5392 48.8541 23.1526C48.3207 23.7392 48.0541 24.4059 48.0541 25.1526C48.0541 25.6859 48.2674 26.1659 48.6941 26.5926C49.3074 27.1792 50.4007 27.9526 51.9741 28.9126C53.5474 29.8726 54.6274 30.7526 55.2141 31.5526C55.8274 32.3259 56.1341 33.2592 56.1341 34.3526C56.1341 35.4192 55.8674 36.4459 55.3341 37.4326C54.8274 38.4192 54.1074 39.2592 53.1741 39.9526C51.1741 41.4459 48.5741 42.1926 45.3741 42.1926C43.6407 42.1926 42.1074 41.7392 40.7741 40.8326C39.4407 39.9526 38.7741 38.9926 38.7741 37.9526C38.7741 36.9126 39.1474 36.0859 39.8941 35.4726C40.6674 34.8592 41.6141 34.5526 42.7341 34.5526C43.8541 34.5526 44.7607 34.7659 45.4541 35.1926C45.1074 36.0726 44.9341 36.8059 44.9341 37.3926C44.9341 39.1526 45.6807 40.0326 47.1741 40.0326C47.8141 40.0326 48.3474 39.8326 48.7741 39.4326C49.2007 39.0326 49.4141 38.4859 49.4141 37.7926C49.4141 36.4326 48.2674 35.0326 45.9741 33.5926C44.1074 32.3659 42.9607 31.5126 42.5341 31.0326C41.8141 30.1792 41.4541 29.2192 41.4541 28.1526C41.4541 27.0859 41.7074 26.0459 42.2141 25.0326C42.7207 24.0192 43.4407 23.1526 44.3741 22.4326C46.3207 20.9392 48.9874 20.1926 52.3741 20.1926C54.1074 20.1926 55.4807 20.5392 56.4941 21.2326C57.5341 21.9259 58.0541 22.8592 58.0541 24.0326C58.0541 25.2059 57.6941 26.1259 56.9741 26.7926C56.2807 27.4592 55.2941 27.7926 54.0141 27.7926C53.1341 27.7926 52.4807 27.6459 52.0541 27.3526ZM79.1872 24.7526C79.1872 25.8726 78.7205 26.7792 77.7872 27.4726C76.8539 28.1659 75.6272 28.5126 74.1072 28.5126C73.4672 28.5126 72.9605 28.4192 72.5872 28.2326C72.8805 27.5392 73.0672 26.7659 73.1472 25.9126C73.2539 25.0326 73.3072 24.4726 73.3072 24.2326C73.3072 23.1126 72.9205 22.5526 72.1472 22.5526C71.6139 22.5526 71.0405 22.8859 70.4272 23.5526C69.8405 24.2192 69.2939 25.0726 68.7872 26.1126C67.6672 28.5126 67.1072 30.9259 67.1072 33.3526C67.1072 34.6859 67.3605 35.6592 67.8672 36.2726C68.3739 36.8592 69.1872 37.1526 70.3072 37.1526C71.8539 37.1526 73.2405 36.5126 74.4672 35.2326C74.8139 34.8326 75.0805 34.4059 75.2672 33.9526C76.2805 34.4859 76.7872 35.4859 76.7872 36.9526C76.7872 38.4459 75.9605 39.6859 74.3072 40.6726C72.6005 41.6859 70.3872 42.1926 67.6672 42.1926C62.2539 42.1926 59.5472 39.3259 59.5472 33.5926C59.5472 29.4059 60.7339 26.1126 63.1072 23.7126C65.4005 21.3659 68.6539 20.1926 72.8672 20.1926C77.0805 20.1926 79.1872 21.7126 79.1872 24.7526ZM92.7703 30.1526C93.7303 28.4459 94.2103 26.7259 94.2103 24.9926C94.2103 23.8459 93.797 23.2726 92.9703 23.2726C92.3303 23.2726 91.677 23.8192 91.0103 24.9126C90.317 26.0059 89.8636 27.2592 89.6503 28.6726L87.5703 41.3926L79.2903 42.1926L83.3703 20.9926L89.9703 20.1926L89.2503 24.2326C90.557 21.5392 92.677 20.1926 95.6103 20.1926C97.157 20.1926 98.3436 20.5926 99.1703 21.3926C100.024 22.1926 100.45 23.4192 100.45 25.0726C100.45 26.6992 99.9036 28.0326 98.8103 29.0726C97.7436 30.1126 96.2903 30.6326 94.4503 30.6326C93.6503 30.6326 93.0903 30.4726 92.7703 30.1526ZM110.71 39.1926C109.883 41.1926 108.15 42.1926 105.51 42.1926C104.15 42.1926 103.043 41.7259 102.19 40.7926C101.47 39.9659 101.11 39.1392 101.11 38.3126C101.11 36.1526 101.603 32.9659 102.59 28.7526L104.07 20.9926L112.19 20.1926L109.75 32.8326C109.296 34.8059 109.07 36.1392 109.07 36.8326C109.07 38.3526 109.616 39.1392 110.71 39.1926ZM104.79 15.4326C104.79 14.3926 105.216 13.5926 106.07 13.0326C106.95 12.4726 108.016 12.1926 109.27 12.1926C110.523 12.1926 111.523 12.4726 112.27 13.0326C113.043 13.5926 113.43 14.3926 113.43 15.4326C113.43 16.4726 113.003 17.2592 112.15 17.7926C111.323 18.3259 110.283 18.5926 109.03 18.5926C107.776 18.5926 106.75 18.3259 105.95 17.7926C105.176 17.2592 104.79 16.4726 104.79 15.4326ZM114.757 37.3926C114.757 36.6726 114.944 35.4059 115.318 33.5926L117.438 22.7926H115.078L115.238 21.5926C118.438 20.6326 121.584 18.9792 124.678 16.6326H126.598L125.638 20.9926H128.758L128.398 22.7926H125.318L123.278 33.5926C122.931 35.2459 122.758 36.3526 122.758 36.9126C122.758 38.1926 123.318 38.9659 124.438 39.2326C124.171 40.1392 123.558 40.8592 122.598 41.3926C121.638 41.9259 120.478 42.1926 119.118 42.1926C117.758 42.1926 116.691 41.7659 115.918 40.9126C115.144 40.0592 114.757 38.8859 114.757 37.3926ZM141.411 39.7126C140.131 41.3659 137.904 42.1926 134.731 42.1926C133.077 42.1926 131.651 41.6992 130.451 40.7126C129.251 39.6992 128.651 38.4726 128.651 37.0326C128.651 36.2326 128.691 35.6326 128.771 35.2326L131.451 20.9926L139.571 20.1926L136.651 35.6326C136.544 36.2192 136.491 36.6859 136.491 37.0326C136.491 38.5792 136.957 39.3526 137.891 39.3526C138.931 39.3526 139.824 38.6459 140.571 37.2326C140.811 36.7792 140.984 36.2592 141.091 35.6726L143.931 20.9926L151.811 20.1926L148.851 35.7926C148.771 36.1926 148.731 36.6059 148.731 37.0326C148.731 37.4592 148.851 37.9126 149.091 38.3926C149.331 38.8459 149.837 39.1259 150.611 39.2326C150.451 39.8726 150.091 40.4059 149.531 40.8326C148.357 41.7392 147.131 42.1926 145.851 42.1926C144.597 42.1926 143.597 41.9659 142.851 41.5126C142.104 41.0592 141.624 40.4592 141.411 39.7126ZM165.921 27.3526C166.295 26.3659 166.481 25.4459 166.481 24.5926C166.481 23.0192 165.841 22.2326 164.561 22.2326C163.895 22.2326 163.281 22.5392 162.721 23.1526C162.188 23.7392 161.921 24.4059 161.921 25.1526C161.921 25.6859 162.135 26.1659 162.561 26.5926C163.175 27.1792 164.268 27.9526 165.841 28.9126C167.415 29.8726 168.495 30.7526 169.081 31.5526C169.695 32.3259 170.001 33.2592 170.001 34.3526C170.001 35.4192 169.735 36.4459 169.201 37.4326C168.695 38.4192 167.975 39.2592 167.041 39.9526C165.041 41.4459 162.441 42.1926 159.241 42.1926C157.508 42.1926 155.975 41.7392 154.641 40.8326C153.308 39.9526 152.641 38.9926 152.641 37.9526C152.641 36.9126 153.015 36.0859 153.761 35.4726C154.535 34.8592 155.481 34.5526 156.601 34.5526C157.721 34.5526 158.628 34.7659 159.321 35.1926C158.975 36.0726 158.801 36.8059 158.801 37.3926C158.801 39.1526 159.548 40.0326 161.041 40.0326C161.681 40.0326 162.215 39.8326 162.641 39.4326C163.068 39.0326 163.281 38.4859 163.281 37.7926C163.281 36.4326 162.135 35.0326 159.841 33.5926C157.975 32.3659 156.828 31.5126 156.401 31.0326C155.681 30.1792 155.321 29.2192 155.321 28.1526C155.321 27.0859 155.575 26.0459 156.081 25.0326C156.588 24.0192 157.308 23.1526 158.241 22.4326C160.188 20.9392 162.855 20.1926 166.241 20.1926C167.975 20.1926 169.348 20.5392 170.361 21.2326C171.401 21.9259 171.921 22.8592 171.921 24.0326C171.921 25.2059 171.561 26.1259 170.841 26.7926C170.148 27.4592 169.161 27.7926 167.881 27.7926C167.001 27.7926 166.348 27.6459 165.921 27.3526Z" fill="#0D214F"/>
</svg>
